<svg xmlns="http://www.w3.org/2000/svg" viewBox="0 0 186.2 200"><defs><style>.a{fill:#009245;}.b{fill:#006837;}.c{fill:#f2f2f2;}.d{fill:#ccc;}</style></defs><title>zhenq</title><path class="a" d="M299.5,200.12l-93.1,33.2,14.2,123.1,78.9,43.7,78.9-43.7,14.2-123.1Z" transform="translate(-206.4 -200.12)"/><path class="b" d="M299.5,200.12v200l78.9-43.7,14.2-123.1Z" transform="translate(-206.4 -200.12)"/><path class="c" d="M284.37,302.72q-7.83.07-11.78,4.67t-3.95,20.39a136.34,136.34,0,0,1-.86,18.06,18.67,18.67,0,0,1-4.31,9.8,19.47,19.47,0,0,1-8.9,5.71q-5.46,1.76-15.44,1.76h-3.81V345.87q10,0,12.24-2.08t2.41-8.47q0.43-18.38,1.33-23.59A28.24,28.24,0,0,1,254.9,302a23,23,0,0,1,8.51-7.9q-6.18-4-8.62-7.9a24.07,24.07,0,0,1-3.3-8.44q-0.86-4.56-1.29-16.94t-1-14.18a5.74,5.74,0,0,0-2.76-3.09q-2.19-1.29-11.16-1.29V225.1h3.81q11.49,0,17.73,2.62a16.82,16.82,0,0,1,9,8.58q2.8,6,2.8,19.24,0,15.22,1.11,19.17a18.6,18.6,0,0,0,3.95,7.22q2.84,3.27,10.66,3.55v17.23Z" transform="translate(-206.4 -200.12)"/><path class="c" d="M291.5,226.46h8V361.74h-8V226.46Z" transform="translate(-206.4 -200.12)"/><path class="d" d="M299.5,226.46h8V361.74h-8V226.46Z" transform="translate(-206.4 -200.12)"/><path class="d" d="M314.63,302.72V285.48q7.83-.07,11.78-4.63t3.95-20.5a130.11,130.11,0,0,1,.9-18,18.9,18.9,0,0,1,4.34-9.8,19.46,19.46,0,0,1,8.9-5.71q5.46-1.76,15.44-1.76h3.81v17.16q-10.41,0-12.46,2.15t-2.19,8.4Q348.66,270,348,275.22a29.25,29.25,0,0,1-3.16,9.87q-2.48,4.7-9.23,9a24.8,24.8,0,0,1,9.3,9.26q2.91,5.39,3.41,15.51l1.08,20.89a6.85,6.85,0,0,0,3.09,4.56q2.44,1.54,11.2,1.54V363.1h-3.73q-11.49,0-17.73-2.62a16.82,16.82,0,0,1-9-8.58q-2.8-6-2.8-19.24,0-14.65-1-18.74a18.35,18.35,0,0,0-3.88-7.5Q322.6,303,314.63,302.72Z" transform="translate(-206.4 -200.12)"/></svg>